<?xml version="1.0" encoding="utf-8"?>
<!-- Generator: Adobe Illustrator 25.2.0, SVG Export Plug-In . SVG Version: 6.00 Build 0)  -->
<svg version="1.0" xmlns="http://www.w3.org/2000/svg" xmlns:xlink="http://www.w3.org/1999/xlink" x="0px" y="0px"
	 viewBox="0 0 17.6 17.6" style="enable-background:new 0 0 17.6 17.6;" xml:space="preserve">
<g id="Ebene_1">
	<path class="st20" d="M16.3,15.2l-2.8-2.8c-0.1-0.1-0.3-0.2-0.5-0.2h-0.5c0.8-1,1.3-2.3,1.3-3.7c0-3.3-2.7-5.9-5.9-5.9
		S1.9,5.2,1.9,8.5s2.7,5.9,5.9,5.9c1.4,0,2.6-0.5,3.7-1.3v0.5c0,0.2,0.1,0.4,0.2,0.5l2.8,2.8c0.3,0.3,0.7,0.3,1,0l0.8-0.8
		C16.6,15.9,16.6,15.5,16.3,15.2z M7.8,12.2c-2,0-3.7-1.6-3.7-3.7c0-2,1.6-3.7,3.7-3.7c2,0,3.7,1.6,3.7,3.7
		C11.5,10.5,9.8,12.2,7.8,12.2z"/>
</g>
</svg>
