<?xml version="1.0" encoding="utf-8"?>
<!-- Generator: Adobe Illustrator 25.2.0, SVG Export Plug-In . SVG Version: 6.00 Build 0)  -->
<svg version="1.0" xmlns="http://www.w3.org/2000/svg" xmlns:xlink="http://www.w3.org/1999/xlink" x="0px" y="0px"
	 viewBox="0 0 17.6 17.6" style="enable-background:new 0 0 17.6 17.6;" xml:space="preserve">
<style type="text/css">
	.st0{display:none;}
	.st1{display:inline;fill:#B9B9B7;}
	.st2{fill:#FFFFFF;}
	.st3{fill:#44FFA3;}
	.st4{fill:#F0F4F4;}
	.st5{clip-path:url(#SVGID_2_);}
	.st6{clip-path:url(#SVGID_4_);}
	.st7{fill:#44FFA7;}
	.st8{clip-path:url(#SVGID_6_);}
	.st9{opacity:0.25;fill:none;stroke:#004444;stroke-miterlimit:10;}
	.st10{clip-path:url(#SVGID_8_);}
	.st11{fill:#E69302;}
	.st12{clip-path:url(#SVGID_10_);}
	.st13{clip-path:url(#SVGID_12_);}
	.st14{clip-path:url(#SVGID_14_);}
	.st15{opacity:0.2;fill:none;stroke:#004444;stroke-miterlimit:10;}
	.st16{fill:none;stroke:#004444;stroke-miterlimit:10;}
	.st17{opacity:0.25;fill:none;stroke:#004444;stroke-width:1.0258;stroke-miterlimit:10;}
	.st18{clip-path:url(#SVGID_16_);}
	.st19{clip-path:url(#SVGID_18_);}
	.st20{fill:#004444;}
	.st21{fill:#ED9A02;}
	.st22{fill:url(#SVGID_21_);}
	.st23{fill:none;stroke:#FFFFFF;stroke-miterlimit:10;}
	.st24{opacity:0.15;}
	.st25{opacity:6.000000e-02;fill:none;stroke:#004444;stroke-width:15;stroke-miterlimit:10;}
	.st26{opacity:0.85;fill:#004444;}
	.st27{fill:#EEEEEE;}
	.st28{opacity:0.2;fill:none;stroke:#004444;stroke-width:8;stroke-linecap:round;stroke-miterlimit:10;}
	.st29{fill:#2F2912;}
	.st30{opacity:0.8;fill:#004444;}
	.st31{fill:#80807A;}
	.st32{fill:#1D1D1B;}
	.st33{fill:#002595;}
	.st34{fill:none;}
	.st35{fill:none;stroke:#004444;stroke-width:1.5;stroke-miterlimit:10;}
	.st36{clip-path:url(#SVGID_31_);}
	.st37{fill:none;stroke:#C62E7F;stroke-width:0.75;stroke-miterlimit:10;}
	.st38{clip-path:url(#SVGID_33_);}
	.st39{fill:none;stroke:#C62E7F;stroke-miterlimit:10;}
	.st40{display:inline;}
	.st41{fill:none;stroke:#C62E7F;stroke-width:0.1;stroke-miterlimit:10;}
	.st42{fill:none;stroke:#0085CF;stroke-width:0.1364;stroke-miterlimit:10;}
	.st43{fill:none;stroke:#0085CF;stroke-width:0.1378;stroke-miterlimit:10;}
	.st44{display:inline;fill:none;stroke:#C62E7F;stroke-width:0.1;stroke-miterlimit:10;}
</style>
<g id="Ebene_2" class="st0">
	<rect x="-12075.4" y="-7520.4" class="st1" width="16487.4" height="16487.4"/>
</g>
<g id="Ebene_1">
	<path class="st20" d="M11.8,8.6v0.9c0,0.2-0.2,0.4-0.4,0.4H6.2C6,9.8,5.8,9.6,5.8,9.4V8.6c0-0.2,0.2-0.4,0.4-0.4h5.2
		C11.6,8.2,11.8,8.4,11.8,8.6z M11.4,10.8H6.2c-0.2,0-0.4,0.2-0.4,0.4V12c0,0.2,0.2,0.4,0.4,0.4h5.2c0.2,0,0.4-0.2,0.4-0.4v-0.9
		C11.8,11,11.6,10.8,11.4,10.8z M14.7,5v10.3c0,0.8-0.7,1.5-1.5,1.5H4.4c-0.8,0-1.5-0.7-1.5-1.5V2.4c0-0.8,0.7-1.5,1.5-1.5h6.3
		c0.4,0,0.8,0.2,1,0.4l2.6,2.6C14.6,4.2,14.7,4.6,14.7,5z M10.8,2.5v2.4h2.4L10.8,2.5z M13.3,15.2V6.3H10C9.6,6.3,9.3,6,9.3,5.6V2.4
		H4.4v12.9H13.3z"/>
</g>
<g id="Grid" class="st0">
</g>
</svg>
