<?xml version="1.0" encoding="utf-8"?>
<!-- Generator: Adobe Illustrator 25.2.0, SVG Export Plug-In . SVG Version: 6.00 Build 0)  -->
<svg version="1.0" xmlns="http://www.w3.org/2000/svg" xmlns:xlink="http://www.w3.org/1999/xlink" x="0px" y="0px"
	 viewBox="0 0 17.6 17.6" style="enable-background:new 0 0 17.6 17.6;" xml:space="preserve">
<style type="text/css">
	.st0{display:none;}
	.st1{display:inline;fill:#B9B9B7;}
	.st2{fill:#FFFFFF;}
	.st3{fill:#44FFA3;}
	.st4{fill:#F0F4F4;}
	.st5{clip-path:url(#SVGID_2_);}
	.st6{clip-path:url(#SVGID_4_);}
	.st7{fill:#44FFA7;}
	.st8{clip-path:url(#SVGID_6_);}
	.st9{opacity:0.25;fill:none;stroke:#004444;stroke-miterlimit:10;}
	.st10{clip-path:url(#SVGID_8_);}
	.st11{fill:#E69302;}
	.st12{clip-path:url(#SVGID_10_);}
	.st13{clip-path:url(#SVGID_12_);}
	.st14{clip-path:url(#SVGID_14_);}
	.st15{opacity:0.2;fill:none;stroke:#004444;stroke-miterlimit:10;}
	.st16{fill:none;stroke:#004444;stroke-miterlimit:10;}
	.st17{opacity:0.25;fill:none;stroke:#004444;stroke-width:1.0258;stroke-miterlimit:10;}
	.st18{clip-path:url(#SVGID_16_);}
	.st19{clip-path:url(#SVGID_18_);}
	.st20{fill:#004444;}
	.st21{fill:#ED9A02;}
	.st22{fill:url(#SVGID_21_);}
	.st23{fill:none;stroke:#FFFFFF;stroke-miterlimit:10;}
	.st24{opacity:0.15;}
	.st25{opacity:6.000000e-02;fill:none;stroke:#004444;stroke-width:15;stroke-miterlimit:10;}
	.st26{opacity:0.85;fill:#004444;}
	.st27{fill:#EEEEEE;}
	.st28{opacity:0.2;fill:none;stroke:#004444;stroke-width:8;stroke-linecap:round;stroke-miterlimit:10;}
	.st29{fill:#2F2912;}
	.st30{opacity:0.8;fill:#004444;}
	.st31{fill:#80807A;}
	.st32{fill:#1D1D1B;}
	.st33{fill:#002595;}
	.st34{fill:none;}
	.st35{fill:none;stroke:#004444;stroke-width:1.5;stroke-miterlimit:10;}
	.st36{clip-path:url(#SVGID_31_);}
	.st37{fill:none;stroke:#C62E7F;stroke-width:0.75;stroke-miterlimit:10;}
	.st38{clip-path:url(#SVGID_33_);}
	.st39{fill:none;stroke:#C62E7F;stroke-miterlimit:10;}
	.st40{display:inline;}
	.st41{fill:none;stroke:#C62E7F;stroke-width:0.1;stroke-miterlimit:10;}
	.st42{fill:none;stroke:#0085CF;stroke-width:0.1364;stroke-miterlimit:10;}
	.st43{fill:none;stroke:#0085CF;stroke-width:0.1378;stroke-miterlimit:10;}
	.st44{display:inline;fill:none;stroke:#C62E7F;stroke-width:0.1;stroke-miterlimit:10;}
</style>
<g id="Ebene_2" class="st0">
	<rect x="-12075.4" y="-7496.1" class="st1" width="16487.4" height="16487.4"/>
</g>
<g id="Ebene_1">
	<path class="st20" d="M16.5,8.4c0-0.6-0.3-1.1-0.8-1.4V3.2c0-0.2-0.2-0.8-0.8-0.8c-0.2,0-0.4,0.1-0.5,0.2l-2.1,1.7
		c-1.1,0.9-2.4,1.3-3.8,1.3H3.7c-0.9,0-1.6,0.7-1.6,1.6v2.4c0,0.9,0.7,1.6,1.6,1.6h0.8c0,0.3-0.1,0.5-0.1,0.8c0,1,0.2,1.9,0.6,2.8
		c0.1,0.3,0.4,0.4,0.7,0.4h1.9c0.7,0,1-0.7,0.6-1.3c-0.4-0.5-0.7-1.2-0.7-1.9c0-0.3,0-0.5,0.1-0.8h0.7c1.4,0,2.7,0.5,3.8,1.3
		l2.1,1.7c0.1,0.1,0.3,0.2,0.5,0.2c0.6,0,0.8-0.6,0.8-0.8V9.8C16.2,9.5,16.5,9,16.5,8.4z M14.1,11.9l-0.8-0.7
		c-1.3-1.1-3-1.7-4.8-1.7V7.2c1.7,0,3.4-0.6,4.8-1.7l0.8-0.7V11.9z"/>
</g>
<g id="Grid" class="st0">
</g>
</svg>
