<?xml version="1.0" encoding="utf-8"?>
<!-- Generator: Adobe Illustrator 25.2.0, SVG Export Plug-In . SVG Version: 6.00 Build 0)  -->
<svg version="1.0" xmlns="http://www.w3.org/2000/svg" xmlns:xlink="http://www.w3.org/1999/xlink" x="0px" y="0px"
	 viewBox="0 0 17.6 17.6" style="enable-background:new 0 0 17.6 17.6;" xml:space="preserve">
<g id="Ebene_1">
	<path class="st20" d="M16.5,8.4c0-0.6-0.3-1.1-0.8-1.4V3.2c0-0.2-0.2-0.8-0.8-0.8c-0.2,0-0.4,0.1-0.5,0.2l-2.1,1.7
		c-1.1,0.9-2.4,1.3-3.8,1.3H3.7c-0.9,0-1.6,0.7-1.6,1.6v2.4c0,0.9,0.7,1.6,1.6,1.6h0.8c0,0.3-0.1,0.5-0.1,0.8c0,1,0.2,1.9,0.6,2.8
		c0.1,0.3,0.4,0.4,0.7,0.4h1.9c0.7,0,1-0.7,0.6-1.3c-0.4-0.5-0.7-1.2-0.7-1.9c0-0.3,0-0.5,0.1-0.8h0.7c1.4,0,2.7,0.5,3.8,1.3
		l2.1,1.7c0.1,0.1,0.3,0.2,0.5,0.2c0.6,0,0.8-0.6,0.8-0.8V9.8C16.2,9.5,16.5,9,16.5,8.4z M14.1,11.9l-0.8-0.7
		c-1.3-1.1-3-1.7-4.8-1.7V7.2c1.7,0,3.4-0.6,4.8-1.7l0.8-0.7V11.9z"/>
</g>
</svg>
