<?xml version="1.0" encoding="utf-8"?>
<!-- Generator: Adobe Illustrator 25.2.0, SVG Export Plug-In . SVG Version: 6.00 Build 0)  -->
<svg version="1.0" xmlns="http://www.w3.org/2000/svg" xmlns:xlink="http://www.w3.org/1999/xlink" x="0px" y="0px"
	 viewBox="0 0 17.6 17.6" style="enable-background:new 0 0 17.6 17.6;" xml:space="preserve">
<g id="Ebene_1">
	<path class="st20" d="M11.8,8.6v0.9c0,0.2-0.2,0.4-0.4,0.4H6.2C6,9.8,5.8,9.6,5.8,9.4V8.6c0-0.2,0.2-0.4,0.4-0.4h5.2
		C11.6,8.2,11.8,8.4,11.8,8.6z M11.4,10.8H6.2c-0.2,0-0.4,0.2-0.4,0.4V12c0,0.2,0.2,0.4,0.4,0.4h5.2c0.2,0,0.4-0.2,0.4-0.4v-0.9
		C11.8,11,11.6,10.8,11.4,10.8z M14.7,5v10.3c0,0.8-0.7,1.5-1.5,1.5H4.4c-0.8,0-1.5-0.7-1.5-1.5V2.4c0-0.8,0.7-1.5,1.5-1.5h6.3
		c0.4,0,0.8,0.2,1,0.4l2.6,2.6C14.6,4.2,14.7,4.6,14.7,5z M10.8,2.5v2.4h2.4L10.8,2.5z M13.3,15.2V6.3H10C9.6,6.3,9.3,6,9.3,5.6V2.4
		H4.4v12.9H13.3z"/>
</g>
</svg>
