<?xml version="1.0" encoding="utf-8"?>
<!-- Generator: Adobe Illustrator 25.2.0, SVG Export Plug-In . SVG Version: 6.00 Build 0)  -->
<svg version="1.0" xmlns="http://www.w3.org/2000/svg" xmlns:xlink="http://www.w3.org/1999/xlink" x="0px" y="0px"
	 viewBox="0 0 17.6 17.6" style="enable-background:new 0 0 17.6 17.6;" xml:space="preserve">
<g id="Ebene_1">
	<path class="st20" d="M12.3,8.3L7,5C6.5,4.8,5.9,5.1,5.9,5.7V12c0,0.6,0.6,0.9,1.1,0.6l5.3-3.1C12.8,9.3,12.8,8.5,12.3,8.3z
		 M16.3,8.8c0-4.2-3.4-7.5-7.5-7.5S1.3,4.7,1.3,8.8s3.4,7.5,7.5,7.5S16.3,13,16.3,8.8z M2.8,8.8c0-3.3,2.7-6.1,6.1-6.1
		s6.1,2.7,6.1,6.1s-2.7,6.1-6.1,6.1S2.8,12.2,2.8,8.8z"/>
</g>
</svg>
