<?xml version="1.0" encoding="utf-8"?>
<!-- Generator: Adobe Illustrator 25.2.0, SVG Export Plug-In . SVG Version: 6.00 Build 0)  -->
<svg version="1.0" xmlns="http://www.w3.org/2000/svg" xmlns:xlink="http://www.w3.org/1999/xlink" x="0px" y="0px"
	 viewBox="0 0 17.6 17.6" style="enable-background:new 0 0 17.6 17.6;" xml:space="preserve">
	<path class="st20" d="M2.9,7.8c0.9,0,1.7-0.8,1.7-1.7S3.8,4.4,2.9,4.4S1.2,5.2,1.2,6.1S1.9,7.8,2.9,7.8z M14.7,7.8
		c0.9,0,1.7-0.8,1.7-1.7s-0.8-1.7-1.7-1.7c-0.9,0-1.7,0.8-1.7,1.7S13.8,7.8,14.7,7.8z M15.6,8.6h-1.7c-0.5,0-0.9,0.2-1.2,0.5
		c1.1,0.6,1.8,1.6,2,2.9h1.7c0.5,0,0.8-0.4,0.8-0.8v-0.8C17.3,9.4,16.5,8.6,15.6,8.6z M8.8,8.6c1.6,0,3-1.3,3-3s-1.3-3-3-3
		s-3,1.3-3,3S7.2,8.6,8.8,8.6z M10.8,9.5h-0.2c-0.6,0.3-1.2,0.4-1.8,0.4C8.2,9.9,7.5,9.7,7,9.5H6.8c-1.7,0-3.1,1.4-3.1,3.1v0.8
		c0,0.7,0.6,1.3,1.3,1.3h7.6c0.7,0,1.3-0.6,1.3-1.3v-0.8C13.9,10.9,12.5,9.5,10.8,9.5z M4.9,9.1C4.6,8.8,4.2,8.6,3.7,8.6H2
		c-0.9,0-1.7,0.8-1.7,1.7v0.8c0,0.5,0.4,0.8,0.8,0.8h1.7C3.1,10.8,3.9,9.7,4.9,9.1L4.9,9.1z"/>
</svg>
