<?xml version="1.0" encoding="utf-8"?>
<!-- Generator: Adobe Illustrator 25.2.0, SVG Export Plug-In . SVG Version: 6.00 Build 0)  -->
<svg version="1.0" xmlns="http://www.w3.org/2000/svg" xmlns:xlink="http://www.w3.org/1999/xlink" x="0px" y="0px"
	 viewBox="0 0 155 75.5" style="enable-background:new 0 0 155 75.5;" xml:space="preserve">
<g id="Ebene_1">
	<g id="neu_1_">
		<g>
			<path class="st32" d="M9.3,29.1c0-14.7,11.9-26.6,26.6-26.6s26.6,11.9,26.6,26.6c0,9.7-7.9,17.6-17.6,17.6
				c-1.5,0-2.7-1.2-2.7-2.7s1.2-2.7,2.7-2.7c6.7,0,12.1-5.4,12.1-12.1C57.1,17.4,47.6,8,36,8s-21.1,9.4-21.1,21.1
				c0,8.6,7.1,15.8,15.2,15.8c0.6,0,1-0.4,1-0.9c0-0.6-0.4-1-1-1c-7.1,0-13.3-6.4-13.3-13.8c0-10.6,8.6-19.2,19.2-19.2
				s19.2,8.6,19.2,19.2c0,5.6-4.5,10.2-10.2,10.2c-2.6,0-4.7,2.1-4.7,4.7c0,2.6,2.1,4.7,4.7,4.7c10.8,0,19.5-8.7,19.5-19.5
				c0-15.8-12.8-28.5-28.5-28.5S7.3,13.3,7.3,29.1c0,12.6,10.3,23.2,22.6,23.2c4.7,0,8.4-3.7,8.4-8.4v-6.5h6.5
				c4.7,0,8.4-3.7,8.4-8.4c0-9.6-7.8-17.4-17.4-17.4c-9.6,0-17.4,7.8-17.4,17.4c0,6.5,5.5,12.1,11.6,12.1c1.5,0,2.7,1.2,2.7,2.7
				s-1.2,2.7-2.8,2.7c-9.1,0-17-8.1-17-17.6C13,16.4,23.2,6.2,35.9,6.2s22.9,10.2,22.9,22.9c0,7.6-6.2,13.8-13.8,13.8
				c-0.6,0-1,0.4-1,1c0,0.6,0.4,1,1,1c8.7-0.1,15.8-7.1,15.8-15.8c0-13.7-11.1-24.8-24.8-24.8S11.1,15.4,11.1,29.1
				c0,10.5,8.7,19.5,18.9,19.5c2.7,0,4.8-2.1,4.8-4.7c0-2.6-2.1-4.7-4.7-4.7c-5.2,0-9.7-4.7-9.7-10.1c-0.1-8.6,6.9-15.5,15.4-15.5
				s15.4,6.9,15.4,15.5c0,3.5-2.9,6.5-6.5,6.5h-6.5v-6.5c0-1.4-1.2-2.6-2.6-2.6c-1.4,0-2.6,1.2-2.6,2.6c0,1.5-1.2,2.7-2.7,2.7
				c-1.5,0-2.7-1.2-2.7-2.7c0-4.5,3.6-8.1,8.1-8.1s8.1,3.6,8.1,8.1c0,0.6,0.4,1,1,1c0.6,0,1-0.4,1-1c0-5.5-4.5-10-10-10
				s-10,4.5-10,10c0,2.6,2.1,4.7,4.7,4.7c2.6,0,4.7-2.1,4.7-4.7c0-0.4,0.3-0.6,0.6-0.6c0.4,0,0.6,0.3,0.6,0.6v6.5h-6
				c-3.6,0-6.5-2.9-6.5-6.5c0-6.5,5.3-11.8,11.8-11.8s11.8,5.3,11.8,11.8c0,1.5-1.2,2.7-2.7,2.7s-2.7-1.2-2.7-2.7
				c0-3.5-2.8-6.3-6.3-6.3c-3.5,0-6.3,2.8-6.3,6.3c0,0.6,0.4,1,1,1c0.6,0,1-0.4,1-1c0-2.4,1.9-4.3,4.3-4.3c2.4,0,4.3,1.9,4.3,4.3
				c0,2.6,2.1,4.7,4.7,4.7c2.6,0,4.7-2.1,4.7-4.7c0-7.6-6.1-13.7-13.7-13.7s-13.7,6.1-13.7,13.7c0,4.7,3.7,8.4,8.4,8.4h6v6.5
				c0,3.5-2.9,6.5-6.5,6.5C18.8,50.4,9.3,40.6,9.3,29.1L9.3,29.1z"/>
			<polygon class="st33" points="0.2,57.6 71.5,57.6 71.5,64.7 0.2,64.7 			"/>
		</g>
		<g>
			<path class="st32" d="M93.8,22.6c-0.1-0.4-0.1-0.6-0.1-0.8c-0.1-0.2-0.1-0.4-0.2-0.5c-0.3-0.7-0.7-1.3-1.4-1.6
				c-0.6-0.3-1.4-0.5-2.1-0.5c-0.4,0-0.8,0.1-1.2,0.1c-0.3,0.1-0.6,0.2-0.9,0.4s-0.4,0.3-0.6,0.5s-0.3,0.3-0.4,0.5
				c-0.2,0.3-0.3,0.6-0.4,0.9c-0.1,0.2-0.1,0.4-0.1,0.6c0,0.1,0,0.4,0.1,0.6s0.2,0.6,0.4,0.8c0.1,0.2,0.3,0.4,0.5,0.5
				s0.4,0.3,0.6,0.4c0.2,0.1,0.6,0.3,0.9,0.4c0.3,0.2,0.7,0.3,1.1,0.5c0.6,0.2,1.2,0.6,1.8,0.8c0.6,0.2,1.2,0.6,1.8,0.9
				c0.2,0.1,0.5,0.3,0.8,0.6c0.3,0.2,0.6,0.6,0.9,0.9c0.3,0.4,0.6,0.8,0.7,1.4c0.2,0.5,0.3,1.1,0.3,1.9c0,0.2,0,0.6-0.1,1
				c-0.1,0.4-0.2,0.9-0.5,1.5c-0.2,0.3-0.4,0.7-0.7,1.1c-0.3,0.4-0.7,0.7-1.2,1c-0.5,0.3-1.1,0.6-1.7,0.7c-0.7,0.2-1.4,0.3-2.3,0.3
				h-0.3c-0.2,0-0.6-0.1-1.1-0.1c-0.5-0.1-1-0.2-1.6-0.4s-1.1-0.6-1.6-1c-0.6-0.4-1-1.1-1.3-1.9c-0.1-0.4-0.2-0.7-0.4-1.1
				c-0.1-0.4-0.2-1-0.2-1.7h2.2c0,0.1,0,0.2,0,0.5c0,0.2,0.1,0.5,0.1,0.7c0.1,0.1,0.1,0.3,0.2,0.6c0.1,0.2,0.2,0.5,0.4,0.7
				c0.2,0.2,0.4,0.5,0.6,0.7c0.2,0.2,0.6,0.4,1,0.6c0.2,0.1,0.4,0.2,0.8,0.2c0.4,0.1,0.8,0.1,1.3,0.1c0.5,0,1-0.1,1.5-0.2
				c0.5-0.1,0.9-0.4,1.3-0.6c0.4-0.3,0.7-0.6,0.9-1.1c0.2-0.4,0.4-0.9,0.4-1.5c0-0.5-0.1-0.9-0.3-1.3c-0.2-0.4-0.4-0.7-0.7-1
				c-0.3-0.3-0.7-0.6-1.1-0.7c-0.4-0.2-0.8-0.4-1.2-0.6c-1.4-0.6-2.5-1.2-3.3-1.6c-0.9-0.4-1.6-0.9-2-1.4c-0.1-0.1-0.2-0.2-0.4-0.4
				c-0.2-0.2-0.3-0.4-0.4-0.7c-0.1-0.2-0.2-0.6-0.4-0.9c-0.1-0.4-0.1-0.7-0.1-1.2s0.1-0.8,0.1-1.2c0.1-0.3,0.2-0.6,0.2-0.7
				c0.2-0.6,0.6-1.1,0.9-1.4c0.4-0.4,0.9-0.7,1.3-1c0.4-0.2,1-0.4,1.6-0.6s1.1-0.2,1.7-0.2c1.1,0,2.2,0.2,3.1,0.7
				c1,0.5,1.7,1.2,2.2,2.3c0.2,0.5,0.4,1,0.4,1.4c0.1,0.4,0.1,0.7,0.1,0.9L93.8,22.6L93.8,22.6z"/>
			<path class="st32" d="M107.4,17.4l6.7,19.7h-2.3l-1.7-5.1h-7.3l-1.8,5.1h-2.3l6.8-19.7L107.4,17.4z M106.4,20.2l-3,9.7h6.1
				L106.4,20.2z"/>
			<path class="st32" d="M130.8,27.4v8.1c-0.1,0.1-0.3,0.2-0.5,0.3c-0.2,0.1-0.4,0.2-0.7,0.4c-0.2,0.1-0.5,0.2-0.8,0.4
				c-0.3,0.1-0.7,0.2-1.2,0.4c-0.4,0.1-0.9,0.2-1.5,0.3s-1.1,0.1-1.7,0.1c-0.8,0-1.6-0.1-2.2-0.2c-0.7-0.2-1.2-0.4-1.7-0.6
				c-0.5-0.2-0.9-0.6-1.2-0.8c-0.4-0.3-0.6-0.6-0.9-0.8c-0.2-0.3-0.6-0.7-0.8-1.2c-0.2-0.4-0.6-1-0.7-1.7c-0.2-0.6-0.4-1.4-0.6-2.2
				s-0.2-1.7-0.2-2.7c0-0.7,0.1-1.6,0.2-2.4s0.3-1.6,0.6-2.3s0.6-1.4,1.1-2.1s1-1.2,1.6-1.7c0.2-0.1,0.4-0.3,0.7-0.5s0.6-0.3,1-0.5
				c0.4-0.2,0.8-0.3,1.3-0.4c0.5-0.1,1.1-0.2,1.7-0.2c1.3,0,2.5,0.3,3.6,0.9c1.1,0.6,1.9,1.6,2.4,2.8c0.1,0.3,0.2,0.7,0.3,1
				c0.1,0.3,0.1,0.7,0.2,1h-2c-0.1-0.1-0.1-0.4-0.2-0.7c-0.1-0.4-0.2-0.7-0.5-1.1c-0.3-0.6-0.6-0.9-1-1.1c-0.4-0.2-0.6-0.4-0.9-0.5
				c-0.2-0.1-0.4-0.1-0.7-0.2c-0.3-0.1-0.7-0.1-1.2-0.1c-0.6,0-1.2,0.1-1.7,0.2c-0.5,0.2-0.9,0.4-1.2,0.6c-0.4,0.2-0.7,0.5-0.9,0.7
				c-0.2,0.2-0.4,0.5-0.6,0.7c-0.6,0.8-0.9,1.8-1.1,2.9c-0.2,1.1-0.3,2-0.3,3c0,0.1,0,0.3,0,0.6c0,0.3,0.1,0.7,0.1,1.2
				c0.1,0.5,0.1,1,0.3,1.6c0.1,0.6,0.3,1.1,0.6,1.7c0.2,0.6,0.6,1.1,1,1.6c0.4,0.5,0.9,0.9,1.6,1.1c0.2,0.1,0.6,0.2,1,0.3
				c0.4,0.1,0.9,0.1,1.6,0.1c0.4,0,1.1-0.1,1.9-0.2c0.8-0.1,1.7-0.5,2.6-1.1v-4.9h-4v-1.9h5.9L130.8,27.4L130.8,27.4z"/>
			<path class="st32" d="M135.2,17.5l3.8,16.6l4-16.6h1.9l4,16.6l3.8-16.6h2l-4.6,19.7h-2.4L144,21.9l-3.9,15.3h-2.4l-4.7-19.6
				L135.2,17.5L135.2,17.5L135.2,17.5z"/>
			<path class="st32" d="M91.8,45l7,19.7h-2.4l-1.8-5.1H87l-1.9,5.1h-2.4l7-19.7H91.8z M90.8,47.9l-3.2,9.7H94L90.8,47.9z"/>
			<path class="st32" d="M111.5,50.2c-0.1-0.4-0.1-0.6-0.1-0.8c-0.1-0.2-0.1-0.4-0.2-0.5c-0.3-0.7-0.8-1.3-1.4-1.6
				c-0.7-0.3-1.4-0.5-2.2-0.5c-0.4,0-0.9,0.1-1.2,0.1c-0.4,0.1-0.7,0.2-0.9,0.4s-0.5,0.3-0.6,0.5c-0.2,0.2-0.3,0.3-0.4,0.5
				c-0.2,0.3-0.3,0.6-0.4,0.9s-0.1,0.4-0.1,0.6c0,0.1,0,0.4,0.1,0.6c0.1,0.2,0.2,0.6,0.4,0.8c0.1,0.2,0.3,0.4,0.5,0.5
				c0.2,0.1,0.4,0.3,0.7,0.4s0.6,0.3,0.9,0.4c0.3,0.2,0.7,0.3,1.2,0.5c0.6,0.2,1.2,0.6,1.9,0.8c0.7,0.2,1.2,0.6,1.9,0.9
				c0.2,0.1,0.6,0.3,0.9,0.6s0.6,0.6,0.9,0.9c0.3,0.4,0.6,0.8,0.8,1.4c0.2,0.6,0.3,1.1,0.3,1.9c0,0.2,0,0.6-0.1,1
				c-0.1,0.4-0.2,0.9-0.5,1.5c-0.2,0.3-0.4,0.7-0.7,1.1s-0.7,0.7-1.2,1c-0.5,0.3-1.1,0.6-1.7,0.7c-0.7,0.2-1.5,0.3-2.4,0.3h-0.3
				c-0.2,0-0.7-0.1-1.2-0.1c-0.5-0.1-1.1-0.2-1.6-0.4c-0.6-0.2-1.1-0.6-1.7-1s-1-1.1-1.4-1.9c-0.1-0.4-0.3-0.7-0.4-1.1
				c-0.1-0.4-0.2-1-0.2-1.7h2.2c0,0.1,0,0.2,0,0.5s0.1,0.5,0.1,0.7c0.1,0.1,0.1,0.3,0.2,0.6c0.1,0.2,0.2,0.5,0.4,0.7
				c0.2,0.2,0.4,0.5,0.7,0.7c0.2,0.2,0.6,0.4,1.1,0.6c0.2,0.1,0.5,0.2,0.8,0.2c0.4,0.1,0.8,0.1,1.4,0.1c0.5,0,1.1-0.1,1.6-0.2
				c0.5-0.1,0.9-0.4,1.4-0.6c0.4-0.3,0.7-0.6,0.9-1.1s0.4-0.9,0.4-1.5c0-0.5-0.1-0.9-0.3-1.3s-0.5-0.7-0.8-1s-0.7-0.6-1.1-0.7
				c-0.4-0.2-0.8-0.4-1.2-0.6c-1.4-0.6-2.5-1.2-3.5-1.6c-0.9-0.4-1.6-0.9-2.1-1.4c-0.1-0.1-0.2-0.2-0.4-0.4
				c-0.2-0.2-0.3-0.4-0.4-0.7s-0.2-0.6-0.4-0.9c-0.1-0.4-0.2-0.7-0.2-1.2c0-0.4,0.1-0.8,0.1-1.2c0.1-0.3,0.2-0.6,0.2-0.7
				c0.2-0.6,0.6-1.1,1-1.4c0.4-0.4,0.9-0.7,1.4-1c0.5-0.2,1.1-0.4,1.6-0.6s1.2-0.2,1.7-0.2c1.2,0,2.2,0.2,3.2,0.7
				c1,0.5,1.8,1.2,2.3,2.3c0.2,0.5,0.4,1,0.4,1.4c0.1,0.4,0.1,0.7,0.1,0.9L111.5,50.2L111.5,50.2z"/>
			<path class="st32" d="M128.8,50.2c-0.1-0.4-0.1-0.6-0.1-0.8c-0.1-0.2-0.1-0.4-0.2-0.5c-0.3-0.7-0.8-1.3-1.4-1.6
				c-0.7-0.3-1.4-0.5-2.2-0.5c-0.4,0-0.9,0.1-1.2,0.1c-0.4,0.1-0.7,0.2-0.9,0.4s-0.5,0.3-0.6,0.5c-0.2,0.2-0.3,0.3-0.4,0.5
				c-0.2,0.3-0.3,0.6-0.4,0.9s-0.1,0.4-0.1,0.6c0,0.1,0,0.4,0.1,0.6c0.1,0.2,0.2,0.6,0.4,0.8c0.1,0.2,0.3,0.4,0.5,0.5
				c0.2,0.1,0.4,0.3,0.7,0.4s0.6,0.3,0.9,0.4c0.3,0.2,0.7,0.3,1.2,0.5c0.6,0.2,1.2,0.6,1.9,0.8s1.2,0.6,1.9,0.9
				c0.2,0.1,0.6,0.3,0.9,0.6s0.6,0.6,0.9,0.9c0.3,0.4,0.6,0.8,0.8,1.4c0.2,0.6,0.3,1.1,0.3,1.9c0,0.2,0,0.6-0.1,1
				c-0.1,0.4-0.2,0.9-0.5,1.5c-0.2,0.3-0.4,0.7-0.7,1.1c-0.3,0.4-0.7,0.7-1.2,1c-0.5,0.3-1.1,0.6-1.7,0.7c-0.7,0.2-1.5,0.3-2.4,0.3
				h-0.3c-0.2,0-0.7-0.1-1.2-0.1c-0.5-0.1-1.1-0.2-1.6-0.4c-0.6-0.2-1.1-0.6-1.7-1s-1-1.1-1.4-1.9c-0.1-0.4-0.3-0.7-0.4-1.1
				c-0.1-0.4-0.2-1-0.2-1.7h2.2c0,0.1,0,0.2,0,0.5s0.1,0.5,0.1,0.7c0.1,0.1,0.1,0.3,0.2,0.6c0.1,0.2,0.2,0.5,0.4,0.7
				c0.2,0.2,0.4,0.5,0.7,0.7c0.2,0.2,0.6,0.4,1.1,0.6c0.2,0.1,0.5,0.2,0.8,0.2c0.4,0.1,0.8,0.1,1.4,0.1c0.5,0,1.1-0.1,1.6-0.2
				c0.5-0.1,0.9-0.4,1.4-0.6c0.4-0.3,0.7-0.6,0.9-1.1s0.4-0.9,0.4-1.5c0-0.5-0.1-0.9-0.3-1.3s-0.5-0.7-0.8-1
				c-0.3-0.3-0.7-0.6-1.1-0.7c-0.4-0.2-0.8-0.4-1.2-0.6c-1.4-0.6-2.5-1.2-3.5-1.6c-0.9-0.4-1.6-0.9-2.1-1.4
				c-0.1-0.1-0.2-0.2-0.4-0.4c-0.2-0.2-0.3-0.4-0.4-0.7s-0.2-0.6-0.4-0.9c-0.1-0.4-0.2-0.7-0.2-1.2c0-0.4,0.1-0.8,0.1-1.2
				c0.1-0.3,0.2-0.6,0.2-0.7c0.2-0.6,0.6-1.1,1-1.4c0.4-0.4,0.9-0.7,1.4-1c0.5-0.2,1.1-0.4,1.6-0.6s1.2-0.2,1.7-0.2
				c1.2,0,2.2,0.2,3.2,0.7c1,0.5,1.8,1.2,2.3,2.3c0.2,0.5,0.4,1,0.4,1.4c0.1,0.4,0.1,0.7,0.1,0.9L128.8,50.2L128.8,50.2z"/>
			<path class="st32" d="M148.3,53.5v-8.4h2.2v19.5h-2.2v-9.3h-9.6v9.3h-2.2V45.2h2.2v8.4H148.3z"/>
		</g>
	</g>
</g>
</svg>
