<?xml version="1.0" encoding="utf-8"?>
<!-- Generator: Adobe Illustrator 25.2.0, SVG Export Plug-In . SVG Version: 6.00 Build 0)  -->
<svg version="1.0" xmlns="http://www.w3.org/2000/svg" xmlns:xlink="http://www.w3.org/1999/xlink" x="0px" y="0px"
	 viewBox="0 0 107.1 75.3" style="enable-background:new 0 0 107.1 75.3;" xml:space="preserve">
<style type="text/css">
	.st0{display:none;}
	.st1{display:inline;fill:#B9B9B7;}
	.st2{fill:#FFFFFF;}
	.st3{fill:#44FFA3;}
	.st4{fill:#F0F4F4;}
	.st5{clip-path:url(#SVGID_2_);}
	.st6{clip-path:url(#SVGID_4_);}
	.st7{fill:#44FFA7;}
	.st8{clip-path:url(#SVGID_6_);}
	.st9{opacity:0.25;fill:none;stroke:#004444;stroke-miterlimit:10;}
	.st10{clip-path:url(#SVGID_8_);}
	.st11{fill:#E69302;}
	.st12{clip-path:url(#SVGID_10_);}
	.st13{clip-path:url(#SVGID_12_);}
	.st14{clip-path:url(#SVGID_14_);}
	.st15{opacity:0.2;fill:none;stroke:#004444;stroke-miterlimit:10;}
	.st16{fill:none;stroke:#004444;stroke-miterlimit:10;}
	.st17{opacity:0.25;fill:none;stroke:#004444;stroke-width:1.0258;stroke-miterlimit:10;}
	.st18{clip-path:url(#SVGID_16_);}
	.st19{clip-path:url(#SVGID_18_);}
	.st20{fill:#004444;}
	.st21{fill:#ED9A02;}
	.st22{fill:url(#SVGID_21_);}
	.st23{fill:none;stroke:#FFFFFF;stroke-miterlimit:10;}
	.st24{opacity:0.15;}
	.st25{opacity:6.000000e-02;fill:none;stroke:#004444;stroke-width:15;stroke-miterlimit:10;}
	.st26{opacity:0.85;fill:#004444;}
	.st27{fill:#EEEEEE;}
	.st28{opacity:0.2;fill:none;stroke:#004444;stroke-width:8;stroke-linecap:round;stroke-miterlimit:10;}
	.st29{fill:#2F2912;}
	.st30{opacity:0.8;fill:#004444;}
	.st31{fill:#80807A;}
	.st32{fill:#1D1D1B;}
	.st33{fill:#002595;}
	.st34{fill:none;}
	.st35{fill:none;stroke:#004444;stroke-width:1.5;stroke-miterlimit:10;}
	.st36{clip-path:url(#SVGID_31_);}
	.st37{fill:none;stroke:#C62E7F;stroke-width:0.75;stroke-miterlimit:10;}
	.st38{clip-path:url(#SVGID_33_);}
	.st39{fill:none;stroke:#C62E7F;stroke-miterlimit:10;}
	.st40{display:inline;}
	.st41{fill:none;stroke:#C62E7F;stroke-width:0.1;stroke-miterlimit:10;}
	.st42{fill:none;stroke:#0085CF;stroke-width:0.1364;stroke-miterlimit:10;}
	.st43{fill:none;stroke:#0085CF;stroke-width:0.1378;stroke-miterlimit:10;}
	.st44{display:inline;fill:none;stroke:#C62E7F;stroke-width:0.1;stroke-miterlimit:10;}
</style>
<g id="Ebene_2" class="st0">
	<rect x="-12180" y="-7484.5" class="st1" width="16487.4" height="16487.4"/>
</g>
<g id="Ebene_1">
	<g>
		<g>
			<g>
				<path class="st20" d="M23.3,8.3c0.8,1.2,2,1.7,3.4,1.7c1,0,2.4-0.4,2.4-1.5c0-0.9-0.8-1.2-2.4-1.5l-1.3-0.3
					c-1.8-0.4-3.4-1.1-3.4-3.2c0-2.4,2.3-3.6,4.4-3.6c2,0,3.6,0.7,4.8,2.3l-1.8,1.3C29,2.6,28,2,26.6,2c-1.2,0-2.2,0.4-2.2,1.3
					c0,0.9,1.1,1.2,2.4,1.5L28.1,5c1.7,0.4,3.3,1,3.3,3.2c0,2.8-2.6,3.7-5,3.7c-1.9,0-3.9-0.8-4.9-2.4L23.3,8.3z"/>
				<path class="st20" d="M34.2,8.3c0.8,1.2,2,1.7,3.4,1.7c1,0,2.4-0.4,2.4-1.5c0-0.9-0.8-1.2-2.4-1.5l-1.3-0.3
					C34.6,6.4,33,5.7,33,3.6C33,1.2,35.3,0,37.4,0c2,0,3.6,0.7,4.8,2.3l-1.8,1.3c-0.6-1-1.6-1.6-3-1.6c-1.2,0-2.2,0.4-2.2,1.3
					c0,0.9,1.1,1.2,2.4,1.5L39,5c1.7,0.4,3.3,1,3.3,3.2c0,2.8-2.6,3.7-5,3.7c-1.9,0-3.9-0.8-4.9-2.4L34.2,8.3z"/>
				<path class="st20" d="M45,8.3c0.8,1.2,2,1.7,3.4,1.7c1,0,2.4-0.4,2.4-1.5c0-0.9-0.8-1.2-2.4-1.5l-1.3-0.3
					c-1.8-0.4-3.4-1.1-3.4-3.2c0-2.4,2.3-3.6,4.4-3.6c2,0,3.6,0.7,4.8,2.3l-1.8,1.3c-0.6-1-1.6-1.6-3-1.6c-1.2,0-2.2,0.4-2.2,1.3
					c0,0.9,1.1,1.2,2.4,1.5L49.8,5c1.7,0.4,3.3,1,3.3,3.2c0,2.8-2.6,3.7-5,3.7c-1.9,0-3.9-0.8-4.9-2.4L45,8.3z"/>
				<path class="st20" d="M54.9,0.3h4.8c2.4,0,3.8,1.4,3.8,3.4c0,2.6-1.7,3.2-2.3,3.4l2.5,4.6h-2.5l-2.2-4.2h-2v4.2h-2.1V0.3z
					 M57,5.6h2.3c1.1,0,1.9-0.6,1.9-1.7c0-1-0.7-1.7-2.2-1.7h-2V5.6z"/>
			</g>
		</g>
		<g>
			<path class="st20" d="M52.6,28.4c1.1,1.6,2.7,2.3,4.6,2.3c1.4,0,3.2-0.5,3.2-1.9c0-1.2-1.1-1.5-3.1-2l-1.7-0.4
				c-2.4-0.6-4.5-1.4-4.5-4.2c0-3.2,3-4.7,5.9-4.7c2.6,0,4.7,0.9,6.3,3l-2.4,1.8c-0.7-1.4-2.1-2.2-4-2.2c-1.6,0-2.9,0.6-2.9,1.7
				c0,1.2,1.4,1.6,3.1,1.9l1.8,0.4c2.2,0.5,4.4,1.4,4.4,4.3c0,3.7-3.5,5-6.6,5c-2.5,0-5.1-1.1-6.5-3.2L52.6,28.4z"/>
			<path class="st20" d="M66.9,28.4c1.1,1.6,2.7,2.3,4.6,2.3c1.4,0,3.2-0.5,3.2-1.9c0-1.2-1.1-1.5-3.1-2l-1.7-0.4
				c-2.4-0.6-4.5-1.4-4.5-4.2c0-3.2,3-4.7,5.9-4.7c2.6,0,4.7,0.9,6.3,3l-2.4,1.8c-0.7-1.4-2.1-2.2-4-2.2c-1.6,0-2.9,0.6-2.9,1.7
				c0,1.2,1.4,1.6,3.1,1.9l1.8,0.4c2.2,0.5,4.4,1.4,4.4,4.3c0,3.7-3.5,5-6.6,5c-2.5,0-5.1-1.1-6.5-3.2L66.9,28.4z"/>
			<path class="st20" d="M80,17.8h2.8v5.7h6.5v-5.7h2.8v15.1h-2.8v-6.8h-6.5v6.8H80V17.8z"/>
			<path class="st20" d="M95.3,17.8h6.3c3.2,0,5.1,1.9,5.1,4.6c0,3.4-2.3,4.2-3,4.5l3.4,6.1h-3.3l-2.9-5.6h-2.7v5.6h-2.8V17.8z
				 M98.1,24.8h3.1c1.4,0,2.5-0.8,2.5-2.3c0-1.4-0.9-2.3-2.9-2.3h-2.7V24.8z"/>
		</g>
		<g>
			<g>
				<path class="st20" d="M3,51.9c1.3,2,3.3,2.8,5.6,2.8c1.7,0,3.9-0.6,3.9-2.4c0-1.4-1.4-1.9-3.8-2.4l-2.1-0.5
					c-3-0.7-5.6-1.8-5.6-5.2c0-3.9,3.7-5.8,7.2-5.8c3.2,0,5.8,1.1,7.7,3.7l-2.9,2.2c-0.9-1.7-2.6-2.7-4.9-2.7c-2,0-3.5,0.7-3.5,2.1
					c0,1.5,1.7,2,3.8,2.4l2.3,0.5c2.8,0.6,5.4,1.7,5.4,5.2c0,4.5-4.3,6.1-8.1,6.1c-3,0-6.3-1.3-8-3.9L3,51.9z"/>
				<path class="st20" d="M31.5,45.3c-0.4-1.5-1.5-3.5-4.6-3.5c-3.7,0-5.2,3.3-5.2,6.5s1.6,6.5,5.2,6.5c2.5,0,4.7-1.7,4.7-4.3H27
					v-3.1h7.7v10.1h-3v-1.6c-1.2,1.4-3.2,2.1-4.9,2.1C21,58,18,53.5,18,48.2s3.4-9.7,8.9-9.7c3.8,0,6.4,1.9,7.9,5.4L31.5,45.3z"/>
				<path class="st20" d="M38.4,39h3.5v15.3h7.5v3.2h-11V39z"/>
				<path class="st20" d="M64,45.3c-0.4-1.5-1.5-3.5-4.6-3.5c-3.7,0-5.2,3.3-5.2,6.5s1.6,6.5,5.2,6.5c2.5,0,4.7-1.7,4.7-4.3h-4.6
					v-3.1h7.7v10.1h-3v-1.6C63,57.3,61,58,59.4,58c-5.9,0-8.9-4.5-8.9-9.7s3.4-9.7,8.9-9.7c3.8,0,6.4,1.9,7.9,5.4L64,45.3z"/>
			</g>
		</g>
		<g>
			<g>
				<path class="st20" d="M44.8,71.5c0.8,1.2,2,1.7,3.4,1.7c1,0,2.4-0.4,2.4-1.5c0-0.9-0.8-1.2-2.4-1.5L47,70
					c-1.8-0.4-3.4-1.1-3.4-3.2c0-2.4,2.3-3.6,4.4-3.6c2,0,3.6,0.7,4.8,2.3L51,66.9c-0.6-1-1.6-1.6-3-1.6c-1.2,0-2.2,0.4-2.2,1.3
					c0,0.9,1.1,1.2,2.4,1.5l1.4,0.3c1.7,0.4,3.3,1,3.3,3.2c0,2.8-2.6,3.7-5,3.7c-1.9,0-3.9-0.8-4.9-2.4L44.8,71.5z"/>
				<path class="st20" d="M54.7,63.6h4.8c2.4,0,3.8,1.4,3.8,3.4c0,2.6-1.7,3.2-2.3,3.4l2.5,4.6h-2.5l-2.2-4.2h-2V75h-2.1V63.6z
					 M56.8,68.9h2.3c1.1,0,1.9-0.6,1.9-1.7c0-1-0.7-1.7-2.2-1.7h-2V68.9z"/>
				<path class="st20" d="M65.1,63.6h2.1v4.3h4.9v-4.3h2.1V75h-2.1v-5.1h-4.9V75h-2.1V63.6z"/>
				<path class="st20" d="M77.5,71.5c0.8,1.2,2,1.7,3.4,1.7c1,0,2.4-0.4,2.4-1.5c0-0.9-0.8-1.2-2.4-1.5L79.7,70
					c-1.8-0.4-3.4-1.1-3.4-3.2c0-2.4,2.3-3.6,4.4-3.6c2,0,3.6,0.7,4.8,2.3l-1.8,1.3c-0.6-1-1.6-1.6-3-1.6c-1.2,0-2.2,0.4-2.2,1.3
					c0,0.9,1.1,1.2,2.4,1.5l1.4,0.3c1.7,0.4,3.3,1,3.3,3.2c0,2.8-2.6,3.7-5,3.7c-1.9,0-3.9-0.8-4.9-2.4L77.5,71.5z"/>
			</g>
		</g>
	</g>
</g>
<g id="Grid" class="st0">
</g>
</svg>
